<svg width="252" height="225" viewBox="0 0 252 225" fill="none" xmlns="http://www.w3.org/2000/svg">
<rect x="2" y="2" width="248" height="221" stroke="white" stroke-width="4"/>
<line x1="62.6464" y1="175.646" x2="187.646" y2="50.6464" stroke="white"/>
<path d="M102.094 104.375C99.5625 107.406 95.9844 109.766 91.3594 111.453C86.7344 113.109 81.6094 113.938 75.9844 113.938C70.0781 113.938 64.8906 112.656 60.4219 110.094C55.9844 107.5 52.5469 103.75 50.1094 98.8438C47.7031 93.9375 46.4688 88.1719 46.4062 81.5469V76.9062C46.4062 70.0938 47.5469 64.2031 49.8281 59.2344C52.1406 54.2344 55.4531 50.4219 59.7656 47.7969C64.1094 45.1406 69.1875 43.8125 75 43.8125C83.0938 43.8125 89.4219 45.75 93.9844 49.625C98.5469 53.4688 101.25 59.0781 102.094 66.4531H88.4062C87.7812 62.5469 86.3906 59.6875 84.2344 57.875C82.1094 56.0625 79.1719 55.1562 75.4219 55.1562C70.6406 55.1562 67 56.9531 64.5 60.5469C62 64.1406 60.7344 69.4844 60.7031 76.5781V80.9375C60.7031 88.0938 62.0625 93.5 64.7812 97.1562C67.5 100.812 71.4844 102.641 76.7344 102.641C82.0156 102.641 85.7812 101.516 88.0312 99.2656V87.5H75.2344V77.1406H102.094V104.375Z" fill="white"/>
<path d="M170.484 165.094C170.484 162.438 169.547 160.406 167.672 159C165.797 157.562 162.422 156.062 157.547 154.5C152.672 152.906 148.812 151.344 145.969 149.812C138.219 145.625 134.344 139.984 134.344 132.891C134.344 129.203 135.375 125.922 137.438 123.047C139.531 120.141 142.516 117.875 146.391 116.25C150.297 114.625 154.672 113.812 159.516 113.812C164.391 113.812 168.734 114.703 172.547 116.484C176.359 118.234 179.312 120.719 181.406 123.938C183.531 127.156 184.594 130.812 184.594 134.906H170.531C170.531 131.781 169.547 129.359 167.578 127.641C165.609 125.891 162.844 125.016 159.281 125.016C155.844 125.016 153.172 125.75 151.266 127.219C149.359 128.656 148.406 130.562 148.406 132.938C148.406 135.156 149.516 137.016 151.734 138.516C153.984 140.016 157.281 141.422 161.625 142.734C169.625 145.141 175.453 148.125 179.109 151.688C182.766 155.25 184.594 159.688 184.594 165C184.594 170.906 182.359 175.547 177.891 178.922C173.422 182.266 167.406 183.938 159.844 183.938C154.594 183.938 149.812 182.984 145.5 181.078C141.188 179.141 137.891 176.5 135.609 173.156C133.359 169.812 132.234 165.938 132.234 161.531H146.344C146.344 169.062 150.844 172.828 159.844 172.828C163.188 172.828 165.797 172.156 167.672 170.812C169.547 169.438 170.484 167.531 170.484 165.094Z" fill="white"/>
</svg>
